<mxfile host="Electron" modified="2023-10-18T17:15:38.839Z" agent="Mozilla/5.0 (Windows NT 10.0; Win64; x64) AppleWebKit/537.36 (KHTML, like Gecko) draw.io/21.4.0 Chrome/112.0.5615.204 Electron/24.5.1 Safari/537.36" etag="j8pNKnS9bb3BmeVgQajm" version="21.4.0" type="device">
  <diagram name="Page-1" id="JO9jtzoD9mqxkjr_Y3Ic">
    <mxGraphModel dx="1739" dy="726" grid="1" gridSize="10" guides="1" tooltips="1" connect="1" arrows="1" fold="1" page="0" pageScale="1" pageWidth="827" pageHeight="1169" math="0" shadow="0">
      <root>
        <mxCell id="0" />
        <mxCell id="1" parent="0" />
        <mxCell id="XRfNfBEVbVmvEzfRpESH-1" value="Proyecto &quot;Renta de Vehículos&quot;" style="rounded=1;whiteSpace=wrap;html=1;fillColor=#f5f5f5;fontColor=#333333;strokeColor=#666666;" parent="1" vertex="1">
          <mxGeometry x="160" y="160" width="120" height="60" as="geometry" />
        </mxCell>
        <mxCell id="XRfNfBEVbVmvEzfRpESH-2" value="3. Infraestructura de Bases de Datos" style="rounded=1;whiteSpace=wrap;html=1;fillColor=#dae8fc;strokeColor=#6c8ebf;" parent="1" vertex="1">
          <mxGeometry x="160" y="300" width="120" height="60" as="geometry" />
        </mxCell>
        <mxCell id="XRfNfBEVbVmvEzfRpESH-3" value="4. Aplicaciones Web" style="rounded=1;whiteSpace=wrap;html=1;fillColor=#d5e8d4;strokeColor=#82b366;" parent="1" vertex="1">
          <mxGeometry x="320" y="300" width="120" height="60" as="geometry" />
        </mxCell>
        <mxCell id="XRfNfBEVbVmvEzfRpESH-4" value="2.Conmutacion en Redes de Datos." style="rounded=1;whiteSpace=wrap;html=1;fillColor=#ffe6cc;strokeColor=#d79b00;" parent="1" vertex="1">
          <mxGeometry y="300" width="120" height="60" as="geometry" />
        </mxCell>
        <mxCell id="XRfNfBEVbVmvEzfRpESH-5" value="5.Sistemas Operativos" style="rounded=1;whiteSpace=wrap;html=1;fillColor=#e1d5e7;strokeColor=#9673a6;" parent="1" vertex="1">
          <mxGeometry x="480" y="300" width="120" height="60" as="geometry" />
        </mxCell>
        <mxCell id="XRfNfBEVbVmvEzfRpESH-6" value="" style="endArrow=none;html=1;rounded=0;" parent="1" edge="1">
          <mxGeometry width="50" height="50" relative="1" as="geometry">
            <mxPoint x="219.76" y="260" as="sourcePoint" />
            <mxPoint x="219.76" y="220" as="targetPoint" />
          </mxGeometry>
        </mxCell>
        <mxCell id="XRfNfBEVbVmvEzfRpESH-7" value="" style="endArrow=none;html=1;rounded=0;exitX=0.5;exitY=0;exitDx=0;exitDy=0;" parent="1" source="zWlVLHmT1e1l0yhweuKw-1" edge="1">
          <mxGeometry width="50" height="50" relative="1" as="geometry">
            <mxPoint x="-110" y="300" as="sourcePoint" />
            <mxPoint x="300" y="260" as="targetPoint" />
            <Array as="points">
              <mxPoint x="-100" y="260" />
            </Array>
          </mxGeometry>
        </mxCell>
        <mxCell id="XRfNfBEVbVmvEzfRpESH-8" value="" style="endArrow=none;html=1;rounded=0;entryX=0.5;entryY=0;entryDx=0;entryDy=0;" parent="1" target="XRfNfBEVbVmvEzfRpESH-5" edge="1">
          <mxGeometry width="50" height="50" relative="1" as="geometry">
            <mxPoint x="300" y="260" as="sourcePoint" />
            <mxPoint x="350" y="210" as="targetPoint" />
            <Array as="points">
              <mxPoint x="540" y="260" />
            </Array>
          </mxGeometry>
        </mxCell>
        <mxCell id="XRfNfBEVbVmvEzfRpESH-9" value="" style="endArrow=none;html=1;rounded=0;exitX=0.5;exitY=0;exitDx=0;exitDy=0;" parent="1" source="XRfNfBEVbVmvEzfRpESH-3" edge="1">
          <mxGeometry width="50" height="50" relative="1" as="geometry">
            <mxPoint x="330" y="310" as="sourcePoint" />
            <mxPoint x="380" y="260" as="targetPoint" />
          </mxGeometry>
        </mxCell>
        <mxCell id="XRfNfBEVbVmvEzfRpESH-10" value="" style="endArrow=none;html=1;rounded=0;" parent="1" edge="1">
          <mxGeometry width="50" height="50" relative="1" as="geometry">
            <mxPoint x="220" y="260" as="sourcePoint" />
            <mxPoint x="220" y="300" as="targetPoint" />
          </mxGeometry>
        </mxCell>
        <mxCell id="XRfNfBEVbVmvEzfRpESH-11" value="3.1 Estructura de Topología Física." style="rounded=1;whiteSpace=wrap;html=1;fillColor=#dae8fc;strokeColor=#6c8ebf;" parent="1" vertex="1">
          <mxGeometry x="160" y="400" width="120" height="60" as="geometry" />
        </mxCell>
        <mxCell id="XRfNfBEVbVmvEzfRpESH-12" value="4.1 Desarrollo de sitios Web responsivos." style="rounded=1;whiteSpace=wrap;html=1;fillColor=#d5e8d4;strokeColor=#82b366;" parent="1" vertex="1">
          <mxGeometry x="320" y="400" width="120" height="60" as="geometry" />
        </mxCell>
        <mxCell id="XRfNfBEVbVmvEzfRpESH-13" value="2.1 Implementación de protocolos VTP,DTP y STP." style="rounded=1;whiteSpace=wrap;html=1;fillColor=#ffe6cc;strokeColor=#d79b00;" parent="1" vertex="1">
          <mxGeometry y="400" width="120" height="60" as="geometry" />
        </mxCell>
        <mxCell id="XRfNfBEVbVmvEzfRpESH-14" value="5.1Implementar servidores dentro de un SO a base de linux.&amp;nbsp;" style="rounded=1;whiteSpace=wrap;html=1;fillColor=#e1d5e7;strokeColor=#9673a6;" parent="1" vertex="1">
          <mxGeometry x="480" y="400" width="120" height="60" as="geometry" />
        </mxCell>
        <mxCell id="XRfNfBEVbVmvEzfRpESH-15" value="3.2 Cable estructurado de acuerdo a las normativas." style="rounded=1;whiteSpace=wrap;html=1;fillColor=#dae8fc;strokeColor=#6c8ebf;" parent="1" vertex="1">
          <mxGeometry x="160" y="500" width="120" height="60" as="geometry" />
        </mxCell>
        <mxCell id="XRfNfBEVbVmvEzfRpESH-16" value="4.2 Realizar una Base de Datos." style="rounded=1;whiteSpace=wrap;html=1;fillColor=#d5e8d4;strokeColor=#82b366;" parent="1" vertex="1">
          <mxGeometry x="320" y="500" width="120" height="60" as="geometry" />
        </mxCell>
        <mxCell id="XRfNfBEVbVmvEzfRpESH-17" value="2.2 Realizar configuración EIGRP de IPv4." style="rounded=1;whiteSpace=wrap;html=1;fillColor=#ffe6cc;strokeColor=#d79b00;" parent="1" vertex="1">
          <mxGeometry y="500" width="120" height="60" as="geometry" />
        </mxCell>
        <mxCell id="XRfNfBEVbVmvEzfRpESH-18" value="5.2 Implementar sistemas de cyberseguridad." style="rounded=1;whiteSpace=wrap;html=1;fillColor=#e1d5e7;strokeColor=#9673a6;" parent="1" vertex="1">
          <mxGeometry x="480" y="500" width="120" height="60" as="geometry" />
        </mxCell>
        <mxCell id="XRfNfBEVbVmvEzfRpESH-19" value="3.3 Implementación de sistemas eléctricos de acuerdo a la normativa." style="rounded=1;whiteSpace=wrap;html=1;fillColor=#dae8fc;strokeColor=#6c8ebf;" parent="1" vertex="1">
          <mxGeometry x="160" y="600" width="120" height="60" as="geometry" />
        </mxCell>
        <mxCell id="XRfNfBEVbVmvEzfRpESH-20" value="4.3 Desarrollar pagina Web que implemente el uso de sesiones." style="rounded=1;whiteSpace=wrap;html=1;fillColor=#d5e8d4;strokeColor=#82b366;" parent="1" vertex="1">
          <mxGeometry x="320" y="600" width="120" height="60" as="geometry" />
        </mxCell>
        <mxCell id="XRfNfBEVbVmvEzfRpESH-21" value="2.3 Diagnostico y TroubleShooting.&amp;nbsp;" style="rounded=1;whiteSpace=wrap;html=1;fillColor=#ffe6cc;strokeColor=#d79b00;" parent="1" vertex="1">
          <mxGeometry y="600" width="120" height="60" as="geometry" />
        </mxCell>
        <mxCell id="XRfNfBEVbVmvEzfRpESH-22" value="5.3 Implementación de base de datos dentro de CentOS." style="rounded=1;whiteSpace=wrap;html=1;fillColor=#e1d5e7;strokeColor=#9673a6;" parent="1" vertex="1">
          <mxGeometry x="480" y="600" width="120" height="60" as="geometry" />
        </mxCell>
        <mxCell id="XRfNfBEVbVmvEzfRpESH-23" value="" style="endArrow=none;html=1;rounded=0;exitX=0.5;exitY=0;exitDx=0;exitDy=0;" parent="1" source="XRfNfBEVbVmvEzfRpESH-13" edge="1">
          <mxGeometry width="50" height="50" relative="1" as="geometry">
            <mxPoint x="10" y="410" as="sourcePoint" />
            <mxPoint x="60" y="360" as="targetPoint" />
          </mxGeometry>
        </mxCell>
        <mxCell id="XRfNfBEVbVmvEzfRpESH-24" value="" style="endArrow=none;html=1;rounded=0;exitX=0.5;exitY=0;exitDx=0;exitDy=0;" parent="1" edge="1">
          <mxGeometry width="50" height="50" relative="1" as="geometry">
            <mxPoint x="219.74" y="400" as="sourcePoint" />
            <mxPoint x="219.74" y="360" as="targetPoint" />
          </mxGeometry>
        </mxCell>
        <mxCell id="XRfNfBEVbVmvEzfRpESH-25" value="" style="endArrow=none;html=1;rounded=0;exitX=0.5;exitY=0;exitDx=0;exitDy=0;" parent="1" edge="1">
          <mxGeometry width="50" height="50" relative="1" as="geometry">
            <mxPoint x="379.74" y="400" as="sourcePoint" />
            <mxPoint x="379.74" y="360" as="targetPoint" />
          </mxGeometry>
        </mxCell>
        <mxCell id="XRfNfBEVbVmvEzfRpESH-28" value="" style="endArrow=none;html=1;rounded=0;exitX=0.5;exitY=0;exitDx=0;exitDy=0;entryX=0.5;entryY=1;entryDx=0;entryDy=0;" parent="1" source="XRfNfBEVbVmvEzfRpESH-14" target="XRfNfBEVbVmvEzfRpESH-5" edge="1">
          <mxGeometry width="50" height="50" relative="1" as="geometry">
            <mxPoint x="100" y="440" as="sourcePoint" />
            <mxPoint x="100" y="400" as="targetPoint" />
          </mxGeometry>
        </mxCell>
        <mxCell id="XRfNfBEVbVmvEzfRpESH-29" value="" style="endArrow=none;html=1;rounded=0;exitX=0.5;exitY=0;exitDx=0;exitDy=0;" parent="1" edge="1">
          <mxGeometry width="50" height="50" relative="1" as="geometry">
            <mxPoint x="59.74" y="500" as="sourcePoint" />
            <mxPoint x="59.74" y="460" as="targetPoint" />
          </mxGeometry>
        </mxCell>
        <mxCell id="XRfNfBEVbVmvEzfRpESH-30" value="" style="endArrow=none;html=1;rounded=0;exitX=0.5;exitY=0;exitDx=0;exitDy=0;" parent="1" edge="1">
          <mxGeometry width="50" height="50" relative="1" as="geometry">
            <mxPoint x="219.48000000000002" y="500" as="sourcePoint" />
            <mxPoint x="219.48000000000002" y="460" as="targetPoint" />
          </mxGeometry>
        </mxCell>
        <mxCell id="XRfNfBEVbVmvEzfRpESH-31" value="" style="endArrow=none;html=1;rounded=0;exitX=0.5;exitY=0;exitDx=0;exitDy=0;" parent="1" edge="1">
          <mxGeometry width="50" height="50" relative="1" as="geometry">
            <mxPoint x="379.48" y="500" as="sourcePoint" />
            <mxPoint x="379.48" y="460" as="targetPoint" />
          </mxGeometry>
        </mxCell>
        <mxCell id="XRfNfBEVbVmvEzfRpESH-32" value="" style="endArrow=none;html=1;rounded=0;exitX=0.5;exitY=0;exitDx=0;exitDy=0;entryX=0.5;entryY=1;entryDx=0;entryDy=0;" parent="1" edge="1">
          <mxGeometry width="50" height="50" relative="1" as="geometry">
            <mxPoint x="539.74" y="500" as="sourcePoint" />
            <mxPoint x="539.74" y="460" as="targetPoint" />
          </mxGeometry>
        </mxCell>
        <mxCell id="XRfNfBEVbVmvEzfRpESH-33" value="" style="endArrow=none;html=1;rounded=0;exitX=0.5;exitY=0;exitDx=0;exitDy=0;" parent="1" edge="1">
          <mxGeometry width="50" height="50" relative="1" as="geometry">
            <mxPoint x="59.739999999999995" y="600" as="sourcePoint" />
            <mxPoint x="59.739999999999995" y="560" as="targetPoint" />
          </mxGeometry>
        </mxCell>
        <mxCell id="XRfNfBEVbVmvEzfRpESH-34" value="" style="endArrow=none;html=1;rounded=0;exitX=0.5;exitY=0;exitDx=0;exitDy=0;" parent="1" edge="1">
          <mxGeometry width="50" height="50" relative="1" as="geometry">
            <mxPoint x="219.48000000000002" y="600" as="sourcePoint" />
            <mxPoint x="219.48000000000002" y="560" as="targetPoint" />
          </mxGeometry>
        </mxCell>
        <mxCell id="XRfNfBEVbVmvEzfRpESH-35" value="" style="endArrow=none;html=1;rounded=0;exitX=0.5;exitY=0;exitDx=0;exitDy=0;" parent="1" edge="1">
          <mxGeometry width="50" height="50" relative="1" as="geometry">
            <mxPoint x="379.48" y="600" as="sourcePoint" />
            <mxPoint x="379.48" y="560" as="targetPoint" />
          </mxGeometry>
        </mxCell>
        <mxCell id="XRfNfBEVbVmvEzfRpESH-36" value="" style="endArrow=none;html=1;rounded=0;exitX=0.5;exitY=0;exitDx=0;exitDy=0;entryX=0.5;entryY=1;entryDx=0;entryDy=0;" parent="1" edge="1">
          <mxGeometry width="50" height="50" relative="1" as="geometry">
            <mxPoint x="539.74" y="600" as="sourcePoint" />
            <mxPoint x="539.74" y="560" as="targetPoint" />
          </mxGeometry>
        </mxCell>
        <mxCell id="XRfNfBEVbVmvEzfRpESH-38" value="" style="endArrow=none;html=1;rounded=0;exitX=0.5;exitY=0;exitDx=0;exitDy=0;" parent="1" edge="1">
          <mxGeometry width="50" height="50" relative="1" as="geometry">
            <mxPoint x="219.48000000000002" y="700" as="sourcePoint" />
            <mxPoint x="219.48000000000002" y="660" as="targetPoint" />
          </mxGeometry>
        </mxCell>
        <mxCell id="XRfNfBEVbVmvEzfRpESH-39" value="" style="endArrow=none;html=1;rounded=0;exitX=0.5;exitY=0;exitDx=0;exitDy=0;" parent="1" edge="1">
          <mxGeometry width="50" height="50" relative="1" as="geometry">
            <mxPoint x="379.48" y="700" as="sourcePoint" />
            <mxPoint x="379.48" y="660" as="targetPoint" />
          </mxGeometry>
        </mxCell>
        <mxCell id="XRfNfBEVbVmvEzfRpESH-42" value="4.4 Utilizar servicio de Hosting." style="rounded=1;whiteSpace=wrap;html=1;fillColor=#d5e8d4;strokeColor=#82b366;" parent="1" vertex="1">
          <mxGeometry x="320" y="700" width="120" height="60" as="geometry" />
        </mxCell>
        <mxCell id="XRfNfBEVbVmvEzfRpESH-47" value="" style="endArrow=none;html=1;rounded=0;exitX=0.5;exitY=0;exitDx=0;exitDy=0;" parent="1" edge="1">
          <mxGeometry width="50" height="50" relative="1" as="geometry">
            <mxPoint x="379.48" y="800" as="sourcePoint" />
            <mxPoint x="379.48" y="760" as="targetPoint" />
          </mxGeometry>
        </mxCell>
        <mxCell id="XRfNfBEVbVmvEzfRpESH-50" value="4.5 Realizar la publicación de la Aplicación Web." style="rounded=1;whiteSpace=wrap;html=1;fillColor=#d5e8d4;strokeColor=#82b366;" parent="1" vertex="1">
          <mxGeometry x="320" y="800" width="120" height="60" as="geometry" />
        </mxCell>
        <mxCell id="R4p4locf48dMSQ6d8llf-1" value="3.4 Instalación de dispositivos electronicós para la seguridad física.&amp;nbsp;" style="rounded=1;whiteSpace=wrap;html=1;fillColor=#dae8fc;strokeColor=#6c8ebf;" parent="1" vertex="1">
          <mxGeometry x="160" y="700" width="120" height="60" as="geometry" />
        </mxCell>
        <mxCell id="zWlVLHmT1e1l0yhweuKw-1" value="1.Integradora" style="rounded=1;whiteSpace=wrap;html=1;fillColor=#fff2cc;strokeColor=#d6b656;" parent="1" vertex="1">
          <mxGeometry x="-160" y="300" width="120" height="60" as="geometry" />
        </mxCell>
        <mxCell id="zWlVLHmT1e1l0yhweuKw-2" value="" style="endArrow=none;html=1;rounded=0;" parent="1" edge="1">
          <mxGeometry width="50" height="50" relative="1" as="geometry">
            <mxPoint x="60" y="300" as="sourcePoint" />
            <mxPoint x="60" y="260" as="targetPoint" />
          </mxGeometry>
        </mxCell>
        <mxCell id="zWlVLHmT1e1l0yhweuKw-5" value="1.1 Definición del proyecto." style="rounded=1;whiteSpace=wrap;html=1;fillColor=#fff2cc;strokeColor=#d6b656;" parent="1" vertex="1">
          <mxGeometry x="-160" y="400" width="120" height="60" as="geometry" />
        </mxCell>
        <mxCell id="zWlVLHmT1e1l0yhweuKw-6" value="1.2 Planificación del proyecto." style="rounded=1;whiteSpace=wrap;html=1;fillColor=#fff2cc;strokeColor=#d6b656;" parent="1" vertex="1">
          <mxGeometry x="-160" y="500" width="120" height="60" as="geometry" />
        </mxCell>
        <mxCell id="zWlVLHmT1e1l0yhweuKw-7" value="1.3 Desarrollo del proyecto" style="rounded=1;whiteSpace=wrap;html=1;fillColor=#fff2cc;strokeColor=#d6b656;" parent="1" vertex="1">
          <mxGeometry x="-160" y="600" width="120" height="60" as="geometry" />
        </mxCell>
        <mxCell id="zWlVLHmT1e1l0yhweuKw-8" value="" style="endArrow=none;html=1;rounded=0;entryX=0.5;entryY=1;entryDx=0;entryDy=0;" parent="1" target="zWlVLHmT1e1l0yhweuKw-1" edge="1">
          <mxGeometry width="50" height="50" relative="1" as="geometry">
            <mxPoint x="-100" y="400" as="sourcePoint" />
            <mxPoint x="-50" y="350" as="targetPoint" />
          </mxGeometry>
        </mxCell>
        <mxCell id="zWlVLHmT1e1l0yhweuKw-10" value="" style="endArrow=none;html=1;rounded=0;entryX=0.5;entryY=1;entryDx=0;entryDy=0;" parent="1" target="zWlVLHmT1e1l0yhweuKw-5" edge="1">
          <mxGeometry width="50" height="50" relative="1" as="geometry">
            <mxPoint x="-100" y="500" as="sourcePoint" />
            <mxPoint x="-50" y="450" as="targetPoint" />
          </mxGeometry>
        </mxCell>
        <mxCell id="zWlVLHmT1e1l0yhweuKw-11" value="" style="endArrow=none;html=1;rounded=0;entryX=0.5;entryY=1;entryDx=0;entryDy=0;" parent="1" target="zWlVLHmT1e1l0yhweuKw-6" edge="1">
          <mxGeometry width="50" height="50" relative="1" as="geometry">
            <mxPoint x="-100" y="600" as="sourcePoint" />
            <mxPoint x="-50" y="550" as="targetPoint" />
          </mxGeometry>
        </mxCell>
        <mxCell id="yv7CzyWSR_Y8ZGiHWwgk-2" value="" style="endArrow=classic;html=1;rounded=0;entryX=0;entryY=0.5;entryDx=0;entryDy=0;exitX=1;exitY=0.5;exitDx=0;exitDy=0;" edge="1" parent="1" source="zWlVLHmT1e1l0yhweuKw-7" target="XRfNfBEVbVmvEzfRpESH-13">
          <mxGeometry width="50" height="50" relative="1" as="geometry">
            <mxPoint x="-40" y="530" as="sourcePoint" />
            <mxPoint x="10" y="480" as="targetPoint" />
            <Array as="points">
              <mxPoint x="-20" y="630" />
              <mxPoint x="-20" y="430" />
            </Array>
          </mxGeometry>
        </mxCell>
        <mxCell id="yv7CzyWSR_Y8ZGiHWwgk-5" value="" style="endArrow=classic;html=1;rounded=0;entryX=1;entryY=0.5;entryDx=0;entryDy=0;exitX=0;exitY=1;exitDx=0;exitDy=0;" edge="1" parent="1" source="XRfNfBEVbVmvEzfRpESH-11" target="XRfNfBEVbVmvEzfRpESH-21">
          <mxGeometry width="50" height="50" relative="1" as="geometry">
            <mxPoint x="160" y="430" as="sourcePoint" />
            <mxPoint x="210" y="380" as="targetPoint" />
            <Array as="points">
              <mxPoint x="140" y="460" />
              <mxPoint x="140" y="630" />
            </Array>
          </mxGeometry>
        </mxCell>
        <mxCell id="yv7CzyWSR_Y8ZGiHWwgk-6" value="" style="endArrow=classic;html=1;rounded=0;entryX=0;entryY=0.5;entryDx=0;entryDy=0;" edge="1" parent="1" target="XRfNfBEVbVmvEzfRpESH-11">
          <mxGeometry width="50" height="50" relative="1" as="geometry">
            <mxPoint x="120" y="430" as="sourcePoint" />
            <mxPoint x="170" y="380" as="targetPoint" />
          </mxGeometry>
        </mxCell>
        <mxCell id="yv7CzyWSR_Y8ZGiHWwgk-7" value="" style="endArrow=none;html=1;rounded=0;" edge="1" parent="1">
          <mxGeometry width="50" height="50" relative="1" as="geometry">
            <mxPoint x="440" y="530" as="sourcePoint" />
            <mxPoint x="460" y="530" as="targetPoint" />
          </mxGeometry>
        </mxCell>
        <mxCell id="yv7CzyWSR_Y8ZGiHWwgk-8" value="" style="endArrow=classic;html=1;rounded=0;entryX=0;entryY=0.5;entryDx=0;entryDy=0;" edge="1" parent="1" target="XRfNfBEVbVmvEzfRpESH-22">
          <mxGeometry width="50" height="50" relative="1" as="geometry">
            <mxPoint x="460" y="530" as="sourcePoint" />
            <mxPoint x="510" y="480" as="targetPoint" />
            <Array as="points">
              <mxPoint x="460" y="630" />
            </Array>
          </mxGeometry>
        </mxCell>
        <mxCell id="yv7CzyWSR_Y8ZGiHWwgk-9" value="" style="endArrow=classic;html=1;rounded=0;entryX=0;entryY=0.5;entryDx=0;entryDy=0;" edge="1" parent="1" target="XRfNfBEVbVmvEzfRpESH-18">
          <mxGeometry width="50" height="50" relative="1" as="geometry">
            <mxPoint x="460" y="530" as="sourcePoint" />
            <mxPoint x="510" y="480" as="targetPoint" />
          </mxGeometry>
        </mxCell>
      </root>
    </mxGraphModel>
  </diagram>
</mxfile>
